<?xml version="1.0" ?><svg contentScriptType="text/ecmascript" contentStyleType="text/css" enable-background="new 0 0 2048 2048" height="2048px" id="Layer_1" preserveAspectRatio="xMidYMid meet" version="1.1" viewBox="21.0 0 1641.0 2048" width="1641.0px" xml:space="preserve" xmlns="http://www.w3.org/2000/svg" xmlns:xlink="http://www.w3.org/1999/xlink" zoomAndPan="magnify"><path d="M384,1600c0-17.333-6.333-32.333-19-45s-27.667-19-45-19s-32.333,6.333-45,19s-19,27.667-19,45s6.333,32.333,19,45  s27.667,19,45,19s32.333-6.333,45-19S384,1617.333,384,1600z M1028,1180l-682,682c-24.667,24.667-54.667,37-90,37  c-34.667,0-65-12.333-91-37L59,1754c-25.333-24-38-54-38-90c0-35.333,12.667-65.667,38-91l681-681  c26,65.333,64.167,123.167,114.5,173.5C904.833,1115.833,962.667,1154,1028,1180z M1662,745c0,26-7.667,61.333-23,106  c-31.333,89.333-86.167,161.833-164.5,217.5c-78.333,55.667-164.5,83.5-258.5,83.5c-123.333,0-228.833-43.833-316.5-131.5  S768,827.333,768,704s43.833-228.833,131.5-316.5S1092.667,256,1216,256c38.667,0,79.167,5.5,121.5,16.5S1415.667,299,1445,319  c10.667,7.333,16,16.667,16,28s-5.333,20.667-16,28l-293,169v224l193,107c3.333-2,29.667-18.167,79-48.5s94.5-57.333,135.5-81  S1624,710,1630,710c10,0,17.833,3.333,23.5,10S1662,735,1662,745z"/></svg>